<svg xmlns="http://www.w3.org/2000/svg" xmlns:xlink="http://www.w3.org/1999/xlink" width="500" zoomAndPan="magnify" viewBox="0 0 375 374.999991" height="500" preserveAspectRatio="xMidYMid meet" version="1.0"><path fill="#f37122" d="M 301.636719 375 L 0 375 L 0 73.363281 L 66.78125 140.144531 L 66.78125 319.136719 L 202.910156 319.136719 C 217.597656 319.136719 230.761719 318.011719 242.402344 315.683594 Z M 234.292969 216.234375 C 226.109375 210.855469 214.148438 208.128906 198.417969 208.128906 L 127.300781 208.128906 L 127.300781 273.222656 L 198.417969 273.222656 C 198.898438 273.222656 199.378906 273.222656 199.941406 273.222656 C 215.03125 273.0625 226.429688 270.496094 234.375 265.519531 C 242.480469 260.382812 246.574219 252.195312 246.574219 240.875 C 246.496094 229.878906 242.480469 221.613281 234.292969 216.234375 Z M 234.292969 216.234375 " fill-opacity="1" fill-rule="nonzero"/><path fill="#6d5485" d="M 375 0 L 375 304.125 L 307.65625 236.78125 C 306.375 226.027344 303 216.636719 297.542969 208.609375 C 290.398438 198.09375 280.449219 190.148438 267.605469 184.691406 C 265.195312 183.726562 262.789062 182.84375 260.300781 182.042969 C 270.496094 176.664062 278.84375 169.441406 284.941406 160.289062 C 291.683594 150.175781 295.054688 138.136719 295.054688 124.410156 C 295.054688 103.863281 286.707031 87.328125 270.011719 74.808594 C 253.316406 62.285156 228.433594 56.023438 195.367188 56.023438 L 126.738281 56.023438 L 70.875 0 Z M 221.855469 109.480469 C 213.988281 104.34375 202.589844 101.777344 187.820312 101.777344 L 127.300781 101.777344 L 127.300781 163.820312 L 187.820312 163.820312 C 202.589844 163.820312 213.988281 161.253906 221.855469 156.117188 C 222.898438 155.472656 223.859375 154.75 224.742188 153.949219 C 230.683594 148.890625 233.734375 141.75 233.734375 132.597656 C 233.734375 122.324219 229.800781 114.617188 221.855469 109.480469 Z M 221.855469 109.480469 " fill-opacity="1" fill-rule="nonzero"/><path fill="#6d5485" d="M 375 161.816406 L 375 304.125 L 307.65625 236.78125 C 306.375 226.027344 303 216.636719 297.542969 208.609375 C 290.398438 198.09375 280.449219 190.148438 267.605469 184.691406 C 265.195312 183.726562 262.789062 182.84375 260.300781 182.042969 C 270.496094 176.664062 278.84375 169.441406 284.941406 160.289062 C 291.683594 150.175781 295.054688 138.136719 295.054688 124.410156 C 295.054688 106.269531 288.554688 91.34375 275.632812 79.382812 Z M 375 161.816406 " fill-opacity="1" fill-rule="nonzero"/><path fill="#f37122" d="M 301.636719 375 L 122.246094 375 L 66.78125 319.136719 L 202.910156 319.136719 C 217.597656 319.136719 230.761719 318.011719 242.402344 315.683594 Z M 301.636719 375 " fill-opacity="1" fill-rule="nonzero"/></svg>