<svg xmlns="http://www.w3.org/2000/svg" xmlns:xlink="http://www.w3.org/1999/xlink" width="500" zoomAndPan="magnify" viewBox="0 0 375 374.999991" height="500" preserveAspectRatio="xMidYMid meet" version="1.0"><defs><clipPath id="da018de8d9"><path d="M 37.5 37.5 L 337.5 37.5 L 337.5 337.5 L 37.5 337.5 Z M 37.5 37.5 " clip-rule="nonzero"/></clipPath></defs><g clip-path="url(#da018de8d9)"><path fill="#525f7f" d="M 337.5 187.5 C 337.5 189.953125 337.441406 192.40625 337.320312 194.859375 C 337.199219 197.3125 337.019531 199.757812 336.777344 202.203125 C 336.535156 204.644531 336.238281 207.082031 335.875 209.507812 C 335.515625 211.9375 335.097656 214.355469 334.617188 216.761719 C 334.140625 219.171875 333.601562 221.566406 333.003906 223.945312 C 332.40625 226.328125 331.753906 228.695312 331.039062 231.042969 C 330.328125 233.390625 329.558594 235.722656 328.730469 238.035156 C 327.90625 240.34375 327.019531 242.632812 326.082031 244.902344 C 325.140625 247.171875 324.148438 249.414062 323.097656 251.632812 C 322.046875 253.851562 320.945312 256.042969 319.789062 258.210938 C 318.632812 260.375 317.421875 262.507812 316.160156 264.617188 C 314.898438 266.722656 313.585938 268.792969 312.21875 270.835938 C 310.855469 272.875 309.445312 274.882812 307.980469 276.855469 C 306.519531 278.828125 305.007812 280.761719 303.453125 282.660156 C 301.894531 284.554688 300.292969 286.414062 298.644531 288.234375 C 296.992188 290.050781 295.300781 291.832031 293.566406 293.566406 C 291.832031 295.300781 290.050781 296.992188 288.234375 298.644531 C 286.414062 300.292969 284.554688 301.894531 282.660156 303.453125 C 280.761719 305.007812 278.828125 306.519531 276.855469 307.980469 C 274.882812 309.445312 272.875 310.855469 270.835938 312.21875 C 268.792969 313.585938 266.722656 314.898438 264.617188 316.160156 C 262.507812 317.421875 260.375 318.632812 258.210938 319.789062 C 256.042969 320.945312 253.851562 322.046875 251.632812 323.097656 C 249.414062 324.148438 247.171875 325.140625 244.902344 326.082031 C 242.632812 327.019531 240.34375 327.90625 238.035156 328.730469 C 235.722656 329.558594 233.390625 330.328125 231.042969 331.039062 C 228.695312 331.753906 226.328125 332.40625 223.945312 333.003906 C 221.566406 333.601562 219.171875 334.140625 216.761719 334.617188 C 214.355469 335.097656 211.9375 335.515625 209.507812 335.875 C 207.082031 336.238281 204.644531 336.535156 202.203125 336.777344 C 199.757812 337.019531 197.3125 337.199219 194.859375 337.320312 C 192.40625 337.441406 189.953125 337.5 187.5 337.5 C 185.046875 337.5 182.589844 337.441406 180.140625 337.320312 C 177.6875 337.199219 175.242188 337.019531 172.796875 336.777344 C 170.355469 336.535156 167.917969 336.238281 165.492188 335.875 C 163.0625 335.515625 160.644531 335.097656 158.238281 334.617188 C 155.828125 334.140625 153.433594 333.601562 151.054688 333.003906 C 148.671875 332.40625 146.304688 331.753906 143.957031 331.039062 C 141.609375 330.328125 139.277344 329.558594 136.964844 328.730469 C 134.65625 327.90625 132.367188 327.019531 130.097656 326.082031 C 127.828125 325.140625 125.585938 324.148438 123.367188 323.097656 C 121.148438 322.046875 118.957031 320.945312 116.789062 319.789062 C 114.625 318.632812 112.488281 317.421875 110.382812 316.160156 C 108.277344 314.898438 106.207031 313.585938 104.164062 312.21875 C 102.125 310.855469 100.117188 309.445312 98.144531 307.980469 C 96.171875 306.519531 94.238281 305.007812 92.339844 303.453125 C 90.445312 301.894531 88.585938 300.292969 86.765625 298.644531 C 84.945312 296.992188 83.167969 295.300781 81.433594 293.566406 C 79.699219 291.832031 78.007812 290.050781 76.355469 288.234375 C 74.707031 286.414062 73.105469 284.554688 71.546875 282.660156 C 69.992188 280.761719 68.480469 278.828125 67.019531 276.855469 C 65.554688 274.882812 64.144531 272.875 62.78125 270.835938 C 61.414062 268.792969 60.101562 266.722656 58.839844 264.617188 C 57.578125 262.507812 56.367188 260.375 55.210938 258.210938 C 54.054688 256.042969 52.953125 253.851562 51.902344 251.632812 C 50.851562 249.414062 49.859375 247.171875 48.917969 244.902344 C 47.980469 242.632812 47.09375 240.34375 46.269531 238.035156 C 45.441406 235.722656 44.671875 233.390625 43.957031 231.042969 C 43.246094 228.695312 42.589844 226.328125 41.996094 223.945312 C 41.398438 221.566406 40.859375 219.171875 40.382812 216.761719 C 39.902344 214.355469 39.484375 211.9375 39.125 209.507812 C 38.761719 207.082031 38.464844 204.644531 38.222656 202.203125 C 37.980469 199.757812 37.800781 197.3125 37.679688 194.859375 C 37.558594 192.40625 37.5 189.953125 37.5 187.5 C 37.5 185.046875 37.558594 182.589844 37.679688 180.140625 C 37.800781 177.6875 37.980469 175.242188 38.222656 172.796875 C 38.464844 170.355469 38.761719 167.917969 39.125 165.492188 C 39.484375 163.0625 39.902344 160.644531 40.382812 158.238281 C 40.859375 155.828125 41.398438 153.433594 41.996094 151.054688 C 42.589844 148.671875 43.246094 146.304688 43.957031 143.957031 C 44.671875 141.609375 45.441406 139.277344 46.269531 136.964844 C 47.09375 134.65625 47.980469 132.367188 48.917969 130.097656 C 49.859375 127.828125 50.851562 125.585938 51.902344 123.367188 C 52.953125 121.148438 54.054688 118.957031 55.210938 116.789062 C 56.367188 114.625 57.578125 112.488281 58.839844 110.382812 C 60.101562 108.277344 61.414062 106.207031 62.78125 104.164062 C 64.144531 102.125 65.554688 100.117188 67.019531 98.144531 C 68.480469 96.171875 69.992188 94.238281 71.546875 92.339844 C 73.105469 90.441406 74.707031 88.585938 76.355469 86.765625 C 78.007812 84.945312 79.699219 83.167969 81.433594 81.433594 C 83.167969 79.699219 84.945312 78.007812 86.765625 76.355469 C 88.585938 74.707031 90.445312 73.105469 92.339844 71.546875 C 94.238281 69.992188 96.171875 68.480469 98.144531 67.019531 C 100.117188 65.554688 102.125 64.144531 104.164062 62.78125 C 106.207031 61.414062 108.277344 60.101562 110.382812 58.839844 C 112.488281 57.578125 114.625 56.367188 116.789062 55.210938 C 118.957031 54.054688 121.148438 52.953125 123.367188 51.902344 C 125.585938 50.851562 127.828125 49.859375 130.097656 48.917969 C 132.367188 47.980469 134.65625 47.09375 136.964844 46.269531 C 139.277344 45.441406 141.609375 44.671875 143.957031 43.957031 C 146.304688 43.246094 148.671875 42.589844 151.054688 41.996094 C 153.433594 41.398438 155.828125 40.859375 158.238281 40.382812 C 160.644531 39.902344 163.0625 39.484375 165.492188 39.125 C 167.917969 38.761719 170.355469 38.464844 172.796875 38.222656 C 175.242188 37.980469 177.6875 37.800781 180.140625 37.679688 C 182.589844 37.558594 185.046875 37.5 187.5 37.5 C 189.953125 37.5 192.40625 37.558594 194.859375 37.679688 C 197.3125 37.800781 199.757812 37.980469 202.203125 38.222656 C 204.644531 38.464844 207.082031 38.761719 209.507812 39.125 C 211.9375 39.484375 214.355469 39.902344 216.761719 40.382812 C 219.171875 40.859375 221.566406 41.398438 223.945312 41.996094 C 226.328125 42.589844 228.695312 43.246094 231.042969 43.957031 C 233.390625 44.671875 235.722656 45.441406 238.035156 46.269531 C 240.34375 47.09375 242.632812 47.980469 244.902344 48.917969 C 247.171875 49.859375 249.414062 50.851562 251.632812 51.902344 C 253.851562 52.953125 256.042969 54.054688 258.210938 55.210938 C 260.375 56.367188 262.507812 57.578125 264.617188 58.839844 C 266.722656 60.101562 268.792969 61.414062 270.835938 62.78125 C 272.875 64.144531 274.882812 65.554688 276.855469 67.019531 C 278.828125 68.480469 280.761719 69.992188 282.660156 71.546875 C 284.554688 73.105469 286.414062 74.707031 288.234375 76.355469 C 290.050781 78.007812 291.832031 79.699219 293.566406 81.433594 C 295.300781 83.167969 296.992188 84.945312 298.644531 86.765625 C 300.292969 88.585938 301.894531 90.441406 303.453125 92.339844 C 305.007812 94.238281 306.519531 96.171875 307.980469 98.144531 C 309.445312 100.117188 310.855469 102.125 312.21875 104.164062 C 313.585938 106.207031 314.898438 108.277344 316.160156 110.382812 C 317.421875 112.488281 318.632812 114.625 319.789062 116.789062 C 320.945312 118.957031 322.046875 121.148438 323.097656 123.367188 C 324.148438 125.585938 325.140625 127.828125 326.082031 130.097656 C 327.019531 132.367188 327.90625 134.65625 328.730469 136.964844 C 329.558594 139.277344 330.328125 141.609375 331.039062 143.957031 C 331.753906 146.304688 332.40625 148.671875 333.003906 151.054688 C 333.601562 153.433594 334.140625 155.828125 334.617188 158.238281 C 335.097656 160.644531 335.515625 163.0625 335.875 165.492188 C 336.238281 167.917969 336.535156 170.355469 336.777344 172.796875 C 337.019531 175.242188 337.199219 177.6875 337.320312 180.140625 C 337.441406 182.589844 337.5 185.046875 337.5 187.5 Z M 337.5 187.5 " fill-opacity="1" fill-rule="nonzero"/></g><path fill="#ffffff" d="M 264.167969 111.980469 C 264.167969 101.261719 255.449219 92.539062 244.730469 92.539062 L 110.929688 92.539062 C 100.207031 92.578125 91.488281 101.300781 91.488281 111.980469 L 91.488281 127.898438 L 264.167969 127.898438 Z M 110.367188 121.539062 C 104.167969 121.539062 99.089844 116.460938 99.089844 110.21875 C 99.089844 103.980469 104.167969 98.898438 110.367188 98.898438 C 116.570312 98.898438 121.6875 103.980469 121.6875 110.21875 C 121.6875 116.460938 116.609375 121.539062 110.367188 121.539062 Z M 135.167969 121.539062 C 128.929688 121.539062 123.890625 116.460938 123.890625 110.261719 C 123.890625 104.019531 128.96875 98.941406 135.167969 98.941406 C 141.410156 98.941406 146.449219 104.019531 146.449219 110.261719 C 146.449219 116.460938 141.410156 121.539062 135.167969 121.539062 Z M 159.929688 121.539062 C 153.6875 121.539062 148.609375 116.460938 148.609375 110.261719 C 148.609375 104.019531 153.6875 98.941406 159.929688 98.941406 C 166.167969 98.941406 171.207031 104.019531 171.207031 110.261719 C 171.25 116.460938 166.167969 121.539062 159.929688 121.539062 Z M 228.648438 117.058594 L 186.007812 117.058594 C 184.6875 117.058594 183.648438 116.019531 183.648438 114.699219 C 183.648438 113.378906 184.6875 112.339844 186.007812 112.339844 L 228.6875 112.339844 C 230.007812 112.339844 231.046875 113.378906 231.046875 114.699219 C 231.046875 116.019531 229.96875 117.058594 228.648438 117.058594 Z M 254.207031 108.101562 L 186.007812 108.101562 C 184.6875 108.101562 183.648438 107.058594 183.648438 105.738281 C 183.648438 104.421875 184.6875 103.378906 186.007812 103.378906 L 254.207031 103.378906 C 255.527344 103.378906 256.570312 104.421875 256.570312 105.738281 C 256.570312 107.058594 255.488281 108.101562 254.207031 108.101562 Z M 254.207031 108.101562 " fill-opacity="1" fill-rule="nonzero"/><path fill="#ffffff" d="M 110.367188 103.660156 C 106.730469 103.660156 103.808594 106.621094 103.808594 110.261719 C 103.808594 113.898438 106.769531 116.820312 110.367188 116.820312 C 113.96875 116.820312 116.96875 113.859375 116.96875 110.261719 C 116.96875 106.621094 114.007812 103.660156 110.367188 103.660156 Z M 110.367188 103.660156 " fill-opacity="1" fill-rule="nonzero"/><path fill="#ffffff" d="M 135.167969 103.660156 C 131.527344 103.660156 128.609375 106.621094 128.609375 110.261719 C 128.609375 113.898438 131.570312 116.820312 135.167969 116.820312 C 138.808594 116.820312 141.730469 113.859375 141.730469 110.261719 C 141.730469 106.621094 138.808594 103.660156 135.167969 103.660156 Z M 135.167969 103.660156 " fill-opacity="1" fill-rule="nonzero"/><path fill="#ffffff" d="M 159.929688 103.660156 C 156.289062 103.660156 153.328125 106.621094 153.328125 110.261719 C 153.328125 113.898438 156.289062 116.820312 159.929688 116.820312 C 163.570312 116.820312 166.488281 113.859375 166.488281 110.261719 C 166.527344 106.621094 163.570312 103.660156 159.929688 103.660156 Z M 159.929688 103.660156 " fill-opacity="1" fill-rule="nonzero"/><path fill="#ffffff" d="M 272.890625 157.019531 C 270.609375 154.738281 268.128906 152.820312 265.449219 151.261719 C 265.367188 151.21875 265.289062 151.179688 265.207031 151.140625 C 259.808594 148.058594 253.6875 146.421875 247.289062 146.378906 L 247.207031 146.378906 C 237.527344 146.378906 228.449219 150.140625 221.609375 156.980469 C 214.730469 163.820312 210.96875 172.941406 210.929688 182.621094 C 210.890625 202.621094 227.128906 218.941406 247.128906 218.941406 C 267.128906 218.980469 283.449219 202.738281 283.449219 182.738281 C 283.488281 173.019531 279.730469 163.898438 272.890625 157.019531 Z M 273.328125 182.621094 C 273.328125 197.5 261.207031 209.578125 246.367188 209.578125 C 231.488281 209.578125 219.410156 197.460938 219.410156 182.621094 C 219.410156 167.78125 231.527344 155.660156 246.367188 155.660156 C 251.609375 155.660156 256.609375 157.140625 260.96875 159.941406 L 262.730469 158.179688 C 263.167969 157.738281 263.769531 157.5 264.410156 157.5 C 265.046875 157.5 265.648438 157.738281 266.089844 158.179688 L 274.449219 166.539062 C 275.367188 167.460938 275.367188 168.941406 274.449219 169.859375 L 271.527344 172.78125 C 272.6875 175.941406 273.328125 179.21875 273.328125 182.621094 Z M 273.328125 182.621094 " fill-opacity="1" fill-rule="nonzero"/><path fill="#ffffff" d="M 246.808594 197.5 C 246.328125 197.980469 245.730469 198.179688 245.128906 198.179688 C 244.527344 198.179688 243.929688 197.941406 243.449219 197.5 L 229.410156 183.460938 C 228.488281 182.539062 228.488281 181.058594 229.410156 180.140625 L 237.769531 171.78125 C 238.207031 171.339844 238.808594 171.101562 239.449219 171.101562 C 240.089844 171.101562 240.6875 171.339844 241.128906 171.78125 L 245.128906 175.78125 L 257.488281 163.421875 C 254.128906 161.460938 250.289062 160.421875 246.328125 160.421875 C 234.046875 160.421875 224.089844 170.421875 224.089844 182.660156 C 224.089844 194.898438 234.089844 204.898438 246.328125 204.898438 C 258.570312 204.898438 268.570312 194.898438 268.570312 182.660156 C 268.570312 180.578125 268.289062 178.539062 267.730469 176.539062 Z M 246.808594 197.5 " fill-opacity="1" fill-rule="nonzero"/><path fill="#ffffff" d="M 247.128906 223.621094 C 241.769531 223.621094 236.648438 222.578125 231.929688 220.699219 L 231.929688 222.78125 C 231.929688 225.421875 234.089844 227.578125 236.730469 227.578125 L 257.488281 227.621094 C 260.128906 227.621094 262.289062 225.460938 262.289062 222.820312 L 262.289062 220.738281 C 257.609375 222.621094 252.488281 223.621094 247.167969 223.621094 Z M 247.128906 223.621094 " fill-opacity="1" fill-rule="nonzero"/><path fill="#ffffff" d="M 233.527344 239.980469 L 234.367188 239.980469 L 234.367188 232.019531 C 230.25 230.980469 227.207031 227.21875 227.207031 222.78125 L 227.207031 218.460938 C 214.648438 211.421875 206.167969 197.980469 206.167969 182.578125 C 206.167969 171.621094 210.449219 161.339844 218.207031 153.621094 C 225.929688 145.898438 236.207031 141.660156 247.128906 141.660156 L 247.207031 141.660156 C 253.128906 141.660156 258.847656 142.941406 264.089844 145.300781 L 264.089844 132.621094 L 91.488281 132.621094 L 91.488281 230.699219 C 91.488281 241.421875 100.207031 250.140625 110.929688 250.140625 L 230.167969 250.140625 L 231.207031 242.019531 C 231.328125 240.859375 232.328125 239.980469 233.527344 239.980469 Z M 145.367188 149.421875 L 198.128906 149.421875 C 199.449219 149.421875 200.488281 150.460938 200.488281 151.78125 C 200.488281 153.101562 199.449219 154.140625 198.128906 154.140625 L 145.367188 154.140625 C 144.046875 154.140625 143.007812 153.101562 143.007812 151.78125 C 143.007812 150.460938 144.046875 149.421875 145.367188 149.421875 Z M 145.367188 164.621094 L 187.808594 164.621094 C 189.128906 164.621094 190.167969 165.660156 190.167969 166.980469 C 190.167969 168.300781 189.128906 169.339844 187.808594 169.339844 L 145.367188 169.339844 C 144.046875 169.339844 143.007812 168.300781 143.007812 166.980469 C 143.007812 165.699219 144.046875 164.621094 145.367188 164.621094 Z M 145.367188 184.578125 L 198.128906 184.578125 C 199.449219 184.578125 200.488281 185.621094 200.488281 186.941406 C 200.488281 188.261719 199.449219 189.300781 198.128906 189.300781 L 145.367188 189.300781 C 144.046875 189.300781 143.007812 188.261719 143.007812 186.941406 C 143.007812 185.660156 144.046875 184.578125 145.367188 184.578125 Z M 145.367188 199.820312 L 187.808594 199.820312 C 189.128906 199.820312 190.167969 200.859375 190.167969 202.179688 C 190.167969 203.5 189.128906 204.539062 187.808594 204.539062 L 145.367188 204.539062 C 144.046875 204.539062 143.007812 203.5 143.007812 202.179688 C 143.007812 200.859375 144.046875 199.820312 145.367188 199.820312 Z M 145.367188 219.78125 L 208.609375 219.78125 C 209.929688 219.78125 210.96875 220.820312 210.96875 222.140625 C 210.96875 223.460938 209.929688 224.5 208.609375 224.5 L 145.367188 224.5 C 144.046875 224.5 143.007812 223.460938 143.007812 222.140625 C 143.007812 220.820312 144.046875 219.78125 145.367188 219.78125 Z M 106.089844 146.699219 C 106.089844 145.378906 107.128906 144.339844 108.449219 144.339844 C 109.769531 144.339844 110.808594 145.378906 110.808594 146.699219 L 110.808594 164.621094 L 126.609375 164.621094 C 127.929688 164.621094 128.96875 165.660156 128.96875 166.980469 C 128.96875 168.300781 127.929688 169.339844 126.609375 169.339844 L 108.449219 169.339844 C 107.128906 169.339844 106.089844 168.300781 106.089844 166.980469 Z M 106.089844 181.898438 C 106.089844 180.578125 107.128906 179.539062 108.449219 179.539062 C 109.769531 179.539062 110.808594 180.578125 110.808594 181.898438 L 110.808594 199.820312 L 126.609375 199.820312 C 127.929688 199.820312 128.96875 200.859375 128.96875 202.179688 C 128.96875 203.5 127.929688 204.539062 126.609375 204.539062 L 108.449219 204.539062 C 107.128906 204.539062 106.089844 203.5 106.089844 202.179688 Z M 126.609375 239.699219 L 108.449219 239.699219 C 107.128906 239.699219 106.089844 238.660156 106.089844 237.339844 L 106.089844 217.058594 C 106.089844 215.738281 107.128906 214.699219 108.449219 214.699219 C 109.769531 214.699219 110.808594 215.738281 110.808594 217.058594 L 110.808594 234.980469 L 126.609375 234.980469 C 127.929688 234.980469 128.96875 236.019531 128.96875 237.339844 C 128.96875 238.660156 127.929688 239.699219 126.609375 239.699219 Z M 133.488281 217.300781 L 122.527344 229.5 C 122.089844 229.980469 121.449219 230.300781 120.769531 230.300781 C 120.089844 230.300781 119.449219 230.019531 119.007812 229.5 L 113.890625 223.78125 C 113.007812 222.820312 113.089844 221.300781 114.089844 220.460938 C 115.046875 219.578125 116.570312 219.660156 117.410156 220.660156 L 120.808594 224.421875 L 130.007812 214.179688 C 130.890625 213.21875 132.367188 213.140625 133.328125 213.980469 C 134.289062 214.859375 134.367188 216.339844 133.488281 217.300781 Z M 133.488281 182.140625 L 122.527344 194.339844 C 122.089844 194.820312 121.449219 195.140625 120.769531 195.140625 C 120.089844 195.140625 119.449219 194.859375 119.007812 194.339844 L 113.890625 188.621094 C 113.007812 187.660156 113.089844 186.140625 114.089844 185.300781 C 115.046875 184.421875 116.570312 184.5 117.410156 185.5 L 120.808594 189.261719 L 130.007812 179.019531 C 130.890625 178.058594 132.367188 177.980469 133.328125 178.820312 C 134.289062 179.660156 134.367188 181.179688 133.488281 182.140625 Z M 133.488281 146.980469 L 122.527344 159.179688 C 122.089844 159.660156 121.449219 159.980469 120.769531 159.980469 C 120.089844 159.980469 119.449219 159.699219 119.007812 159.179688 L 113.890625 153.421875 C 113.007812 152.460938 113.089844 150.941406 114.089844 150.101562 C 115.046875 149.21875 116.570312 149.300781 117.410156 150.300781 L 120.808594 154.058594 L 130.007812 143.820312 C 130.890625 142.859375 132.367188 142.78125 133.328125 143.621094 C 134.289062 144.5 134.367188 145.980469 133.488281 146.980469 Z M 223.449219 239.699219 L 145.367188 239.699219 C 144.046875 239.699219 143.007812 238.660156 143.007812 237.339844 C 143.007812 236.019531 144.046875 234.980469 145.367188 234.980469 L 223.449219 234.980469 C 224.769531 234.980469 225.808594 236.019531 225.808594 237.339844 C 225.808594 238.660156 224.769531 239.699219 223.449219 239.699219 Z M 223.449219 239.699219 " fill-opacity="1" fill-rule="nonzero"/><path fill="#ffffff" d="M 258.648438 244.738281 L 236.808594 244.699219 L 236.730469 244.699219 C 236.730469 244.699219 236.730469 244.699219 236.6875 244.699219 L 235.570312 244.699219 L 232.730469 267.019531 C 232.410156 271.019531 233.769531 274.859375 236.488281 277.820312 C 239.25 280.78125 242.96875 282.421875 247.007812 282.460938 L 247.046875 282.460938 C 251.089844 282.460938 254.808594 280.820312 257.570312 277.859375 C 260.328125 274.898438 261.648438 271.058594 261.367188 267.058594 Z M 258.648438 244.738281 " fill-opacity="1" fill-rule="nonzero"/><path fill="#ffffff" d="M 239.089844 232.300781 L 239.089844 239.980469 L 255.128906 240.019531 L 255.167969 232.339844 Z M 239.089844 232.300781 " fill-opacity="1" fill-rule="nonzero"/><path fill="#ffffff" d="M 246.808594 180.78125 C 246.367188 181.21875 245.769531 181.460938 245.128906 181.460938 C 244.488281 181.460938 243.890625 181.21875 243.449219 180.78125 L 239.449219 176.78125 L 234.410156 181.820312 L 245.128906 192.539062 L 269.367188 168.300781 L 264.328125 163.261719 Z M 246.808594 180.78125 " fill-opacity="1" fill-rule="nonzero"/></svg>